<svg id="SvgjsSvg1038" width="288" height="288" xmlns="http://www.w3.org/2000/svg" version="1.1" xmlns:xlink="http://www.w3.org/1999/xlink" xmlns:svgjs="http://svgjs.com/svgjs"><defs id="SvgjsDefs1039"></defs><g id="SvgjsG1040"><svg xmlns="http://www.w3.org/2000/svg" fill-rule="evenodd" stroke-linejoin="round" stroke-miterlimit="2" clip-rule="evenodd" viewBox="0 0 512 512" width="288" height="288"><path d="M2315.47,423.322L2315.47,472.93C2315.47,475.689 2317.72,477.93 2320.47,477.93C2323.23,477.93 2325.47,475.689 2325.47,472.93L2325.47,423.76L2386.2,423.76L2386.2,472.93C2386.2,475.689 2388.44,477.93 2391.2,477.93C2393.96,477.93 2396.2,475.689 2396.2,472.93L2396.2,423.322C2406.64,421.245 2414.52,412.028 2414.52,400.986C2414.52,388.416 2404.31,378.211 2391.74,378.211L2319.94,378.211C2307.37,378.211 2297.16,388.416 2297.16,400.986C2297.16,412.028 2305.04,421.245 2315.47,423.322ZM2611.8,423.322L2611.8,472.93C2611.8,475.689 2614.04,477.93 2616.8,477.93C2619.56,477.93 2621.8,475.689 2621.8,472.93L2621.8,423.76L2682.53,423.76L2682.53,472.93C2682.53,475.689 2684.77,477.93 2687.53,477.93C2690.28,477.93 2692.53,475.689 2692.53,472.93L2692.53,423.322C2702.96,421.245 2710.84,412.028 2710.84,400.986C2710.84,388.416 2700.63,378.211 2688.06,378.211L2616.26,378.211C2603.69,378.211 2593.48,388.416 2593.48,400.986C2593.48,412.028 2601.36,421.245 2611.8,423.322ZM2463.64,423.322L2463.64,472.93C2463.64,475.689 2465.88,477.93 2468.64,477.93C2471.4,477.93 2473.64,475.689 2473.64,472.93L2473.64,423.76L2534.36,423.76L2534.36,472.93C2534.36,475.689 2536.6,477.93 2539.36,477.93C2542.12,477.93 2544.36,475.689 2544.36,472.93L2544.36,423.322C2554.8,421.245 2562.68,412.028 2562.68,400.986C2562.68,388.416 2552.47,378.211 2539.9,378.211L2468.1,378.211C2455.53,378.211 2445.32,388.416 2445.32,400.986C2445.32,412.028 2453.2,421.245 2463.64,423.322ZM2700.84,400.986C2700.84,408.036 2695.12,413.76 2688.06,413.76L2616.26,413.76C2609.21,413.76 2603.48,408.036 2603.48,400.986C2603.48,393.935 2609.21,388.211 2616.26,388.211C2616.26,388.211 2688.06,388.211 2688.06,388.211C2695.12,388.211 2700.84,393.935 2700.84,400.986ZM2404.52,400.986C2404.52,408.036 2398.79,413.76 2391.74,413.76L2319.94,413.76C2312.89,413.76 2307.16,408.036 2307.16,400.986C2307.16,393.935 2312.89,388.211 2319.94,388.211C2319.94,388.211 2391.74,388.211 2391.74,388.211C2398.79,388.211 2404.52,393.935 2404.52,400.986ZM2552.68,400.986C2552.68,408.036 2546.95,413.76 2539.9,413.76L2468.1,413.76C2461.05,413.76 2455.32,408.036 2455.32,400.986C2455.32,393.935 2461.05,388.211 2468.1,388.211C2468.1,388.211 2539.9,388.211 2539.9,388.211C2546.95,388.211 2552.68,393.935 2552.68,400.986ZM2680,62.07L2328,62.07L2328,55.57C2328,43.704 2318.37,34.07 2306.5,34.07C2294.63,34.07 2285,43.704 2285,55.57L2285,62.07L2275.5,62.07C2266.39,62.07 2259,69.464 2259,78.57C2259,87.336 2265.85,94.514 2274.48,95.04L2274.48,317.101C2265.85,317.627 2259,324.805 2259,333.57C2259,342.677 2266.39,350.07 2275.5,350.07C2275.5,350.07 2732.5,350.07 2732.5,350.07C2741.61,350.07 2749,342.677 2749,333.57C2749,324.805 2742.15,317.627 2733.52,317.101L2733.52,95.04C2742.15,94.514 2749,87.336 2749,78.57C2749,69.464 2741.61,62.07 2732.5,62.07L2723,62.07L2723,55.57C2723,43.704 2713.37,34.07 2701.5,34.07C2689.63,34.07 2680,43.704 2680,55.57L2680,62.07ZM2275.5,327.07L2732.5,327.07C2736.09,327.07 2739,329.983 2739,333.57C2739,337.158 2736.09,340.07 2732.5,340.07L2275.5,340.07C2271.91,340.07 2269,337.158 2269,333.57C2269,329.983 2271.91,327.07 2275.5,327.07ZM2712,317.07L2723.52,317.07L2723.52,95.07L2284.48,95.07L2284.48,317.07L2627,317.07L2627,294.07C2627,291.309 2629.24,289.07 2632,289.07L2707,289.07C2709.76,289.07 2712,291.309 2712,294.07L2712,317.07ZM2702,317.07L2702,299.07C2702,299.07 2637,299.07 2637,299.07L2637,317.07L2702,317.07ZM2368.57,132.195C2367.34,130.377 2365.06,129.576 2362.96,130.22C2360.86,130.865 2359.43,132.804 2359.43,135L2359.43,256C2359.43,258.761 2361.67,261 2364.43,261L2446.43,261C2448.28,261 2449.98,259.978 2450.85,258.343C2451.71,256.707 2451.61,254.727 2450.57,253.195L2368.57,132.195ZM2369.43,151.291L2437,251C2437,251 2369.43,251 2369.43,251L2369.43,151.291ZM2495.55,233.401L2643.57,233.401C2646.33,233.401 2648.57,231.16 2648.57,228.401C2648.57,225.641 2646.33,223.401 2643.57,223.401L2495.55,223.401C2492.79,223.401 2490.55,225.641 2490.55,228.401C2490.55,231.16 2492.79,233.401 2495.55,233.401ZM2495.55,211.467L2643.57,211.467C2646.33,211.467 2648.57,209.227 2648.57,206.467C2648.57,203.707 2646.33,201.467 2643.57,201.467L2495.55,201.467C2492.79,201.467 2490.55,203.707 2490.55,206.467C2490.55,209.227 2492.79,211.467 2495.55,211.467ZM2495.55,189.533L2643.57,189.533C2646.33,189.533 2648.57,187.293 2648.57,184.533C2648.57,181.773 2646.33,179.533 2643.57,179.533L2495.55,179.533C2492.79,179.533 2490.55,181.773 2490.55,184.533C2490.55,187.293 2492.79,189.533 2495.55,189.533ZM2516.95,167.599L2643.57,167.599C2646.33,167.599 2648.57,165.359 2648.57,162.599C2648.57,159.84 2646.33,157.599 2643.57,157.599L2516.95,157.599C2514.2,157.599 2511.95,159.84 2511.95,162.599C2511.95,165.359 2514.2,167.599 2516.95,167.599ZM2275.5,72.07L2732.5,72.07C2736.09,72.07 2739,74.983 2739,78.57C2739,82.158 2736.09,85.07 2732.5,85.07L2275.5,85.07C2271.91,85.07 2269,82.158 2269,78.57C2269,74.983 2271.91,72.07 2275.5,72.07ZM2318,62.07L2318,55.57C2318,49.223 2312.85,44.07 2306.5,44.07C2300.15,44.07 2295,49.223 2295,55.57L2295,62.07L2318,62.07ZM2713,62.07L2713,55.57C2713,49.223 2707.85,44.07 2701.5,44.07C2695.15,44.07 2690,49.223 2690,55.57L2690,62.07L2713,62.07Z" transform="translate(-2248)" fill="#ffffff" class="color000 svgShape"></path></svg></g></svg>