<svg id="SvgjsSvg1135" width="288" height="288" xmlns="http://www.w3.org/2000/svg" version="1.1" xmlns:xlink="http://www.w3.org/1999/xlink" xmlns:svgjs="http://svgjs.com/svgjs"><defs id="SvgjsDefs1136"></defs><g id="SvgjsG1137"><svg xmlns="http://www.w3.org/2000/svg" viewBox="0 0 512 512" width="288" height="288"><path d="M260.8 308.41L288 288v-6.66q2.38-1.06 4.7-2.3a77.76 77.76 0 0 0 41.12-62.15c.2-2.2.3-4.43.3-6.81V176.72a66.46 66.46 0 0 0 26.37-16.23l-17-17a42.46 42.46 0 0 1-18 10.71v1.93h-139v-1.93a42.46 42.46 0 0 1-18-10.71l-17 17a66.46 66.46 0 0 0 26.37 16.23v33.39c0 2.38.1 4.61.3 6.74a77.75 77.75 0 0 0 41.11 62.21q2.31 1.24 4.71 2.31V288l27.2 20.38A8 8 0 0 0 260.8 308.41zm-62.7-93.34c-.15-1.57-.22-3.2-.22-5V190H314.12v20.12c0 1.76-.07 3.39-.22 5a57.9 57.9 0 0 1-30.61 46.29 58.14 58.14 0 0 1-54.59 0A57.89 57.89 0 0 1 198.1 215.07zM248 352h0l-4.6 28.77L256 393.38l12.7-12.7L264.14 352h0L270.78 325A4 4 0 0 0 266.9 320H245.12a4 4 0 0 0-3.88 5z" fill="#ffffff" class="color000 svgShape"></path><path d="M382.68 304.72L288 288v96l-32 32-32-32V288l-94.69 16.71A50 50 0 0 0 88 354V494a8 8 0 0 0 8 8h48V432h16v70H352V432h16v70h48a8 8 0 0 0 8-8V354A50 50 0 0 0 382.68 304.72zM368 376H312V352h56zM324.12 34A16 16 0 0 0 306.25 18.1l-45 5.28a45 45 0 0 1-10.5 0l-45-5.28A16 16 0 0 0 187.88 34V139.84H324.12zM267.24 57.3a67.76 67.76 0 0 1-10.72.85 67.56 67.56 0 0 1-11.86-1l-46.07-8.22 2.82-15.76 46.06 8.23a51.37 51.37 0 0 0 17.23.15l46-7.4 2.54 15.8z" fill="#ffffff" class="color000 svgShape"></path></svg></g></svg>