<svg id="SvgjsSvg1153" width="288" height="288" xmlns="http://www.w3.org/2000/svg" version="1.1" xmlns:xlink="http://www.w3.org/1999/xlink" xmlns:svgjs="http://svgjs.com/svgjs"><defs id="SvgjsDefs1154"></defs><g id="SvgjsG1155"><svg xmlns="http://www.w3.org/2000/svg" viewBox="0 0 32 32" width="288" height="288"><path d="M27.885 27.115a4.679 4.679 0 0 1-4.673-4.674V5.844H13.59V4.386a3.3 3.3 0 0 0-6.6 0v1.458H4.115v25.072h19.1v-2.723h4.674ZM9.388 9.943a1.326 1.326 0 0 1-1.324-1.325V6.924h2.649v1.694a1.326 1.326 0 0 1-1.325 1.325Zm1.325-4.1h-.8v-1.4a.4.4 0 0 1 .8 0ZM8.064 4.386a2.224 2.224 0 1 1 4.448 0v1.458h-.72v-1.4a1.478 1.478 0 0 0-2.955 0v1.4h-.773Zm1.8 22.729a4.679 4.679 0 0 1-4.673-4.666V6.924h1.794v1.694a2.4 2.4 0 0 0 2.4 2.4h10.967V9.943H11.39a2.383 2.383 0 0 0 .4-1.325V6.924h10.343v15.517a5.75 5.75 0 0 0 2.4 4.674Z" fill="#ffffff" class="color000 svgShape"></path><path d="M7.167 14.014h13.186v1.078H7.167zM7.167 18.085h13.186v1.078H7.167zM7.167 22.156h13.186v1.078H7.167z" fill="#ffffff" class="color000 svgShape"></path></svg></g></svg>